{"title":"Big Boi ft Yelawolf - You Aint No DJ [KingPinVideos]","uid":5799879,"size":100181751,"categoryP":"video","categoryS":"music_videos","magnet":"?xt=urn:btih:bf1de577a2535fdb65231e9b645f61549e0fdb13&amp;dn=Big+Boi+ft+Yelawolf+-+You+Aint+No+DJ+%5BKingPinVideos%5D&amp;tr=udp%3A%2F%2Ftracker.openbittorrent.com%3A80&amp;tr=udp%3A%2F%2Fopen.demonii.com%3A1337&amp;tr=udp%3A%2F%2Ftracker.coppersurfer.tk%3A6969&amp;tr=udp%3A%2F%2Fexodus.desync.com%3A6969","seeders":0,"leechers":0,"uploader":"KingPinMan","files":4,"time":1283219728,"description":"[img]http://a.imageshack.us/img413/9633/bigboidj.png[/img]\n\n[img]http://a.imageshack.us/img842/1581/bigboidj2.png[/img]\n\n[code]General\nComplete name                    : Big Boi ft Yelawolf - You Aint No DJ [KingPinVideos].mpg\nFormat                           : MPEG-PS\nFile size                        : 95.5 MiB\nDuration                         : 4mn 40s\nOverall bit rate                 : 2 856 Kbps\nWriting library                  : encoded by TMPGEnc 4.0 XPress Version. 4.7.4.299\n\nVideo\nID                               : 224 (0xE0)\nFormat                           : MPEG Video\nFormat version                   : Version 1\nFormat settings, BVOP            : Yes\nFormat settings, Matrix          : Default\nDuration                         : 4mn 40s\nBit rate mode                    : Constant\nBit rate                         : 2 615 Kbps\nNominal bit rate                 : 2 700 Kbps\nWidth                            : 384 pixels\nHeight                           : 208 pixels\nDisplay aspect ratio             : 16:9\nFrame rate                       : 29.970 fps\nResolution                       : 8 bits\nScan type                        : Progressive\nBits/(Pixel*Frame)               : 1.092\nStream size                      : 87.5 MiB (92%)\nWriting library                  : TMPGEnc XPress 4.7.4.299\n\nAudio\nID                               : 192 (0xC0)\nFormat                           : MPEG Audio\nFormat version                   : Version 1\nFormat profile                   : Layer 2\nDuration                         : 4mn 40s\nBit rate mode                    : Constant\nBit rate                         : 128 Kbps\nChannel(s)                       : 2 channels\nSampling rate                    : 48.0 KHz\nStream size                      : 4.28 MiB (4%)[/code]","torrent":{"xt":"urn:btih:bf1de577a2535fdb65231e9b645f61549e0fdb13","amp;dn":"Big+Boi+ft+Yelawolf+-+You+Aint+No+DJ+%5BKingPinVideos%5D","amp;tr":["udp%3A%2F%2Ftracker.openbittorrent.com%3A80","udp%3A%2F%2Fopen.demonii.com%3A1337","udp%3A%2F%2Ftracker.coppersurfer.tk%3A6969","udp%3A%2F%2Fexodus.desync.com%3A6969"],"infoHash":"bf1de577a2535fdb65231e9b645f61549e0fdb13","infoHashBuffer":{"type":"Buffer","data":[191,29,229,119,162,83,95,219,101,35,30,155,100,95,97,84,158,15,219,19]},"announce":[],"urlList":[]}}